<svg width="172" height="24" viewBox="0 0 172 24" fill="none" xmlns="http://www.w3.org/2000/svg">
<path d="M8.596 7.13V17H7.308V12.436H2.296V17H1.022V7.13H2.296V11.4H7.308V7.13H8.596ZM14.1193 9.216C14.8567 9.216 15.5147 9.37467 16.0933 9.692C16.6813 10.0093 17.1387 10.4667 17.4653 11.064C17.8013 11.6613 17.9693 12.3613 17.9693 13.164C17.9693 13.9667 17.8013 14.6667 17.4653 15.264C17.1387 15.852 16.6813 16.3047 16.0933 16.622C15.5147 16.9393 14.8567 17.098 14.1193 17.098C13.382 17.098 12.7193 16.9393 12.1313 16.622C11.5527 16.3047 11.0953 15.852 10.7593 15.264C10.4233 14.6667 10.2553 13.9667 10.2553 13.164C10.2553 12.3613 10.4233 11.6613 10.7593 11.064C11.0953 10.4667 11.5527 10.0093 12.1313 9.692C12.7193 9.37467 13.382 9.216 14.1193 9.216ZM14.1193 10.336C13.662 10.336 13.2373 10.4387 12.8453 10.644C12.4627 10.8493 12.15 11.1667 11.9073 11.596C11.674 12.016 11.5573 12.5387 11.5573 13.164C11.5573 13.78 11.674 14.3027 11.9073 14.732C12.15 15.152 12.4627 15.4647 12.8453 15.67C13.2373 15.8753 13.662 15.978 14.1193 15.978C14.5767 15.978 14.9967 15.8753 15.3793 15.67C15.7713 15.4647 16.084 15.152 16.3173 14.732C16.56 14.3027 16.6813 13.78 16.6813 13.164C16.6813 12.5387 16.56 12.016 16.3173 11.596C16.084 11.1667 15.7713 10.8493 15.3793 10.644C14.9967 10.4387 14.5767 10.336 14.1193 10.336ZM29.0794 9.188C29.9754 9.188 30.6941 9.47733 31.2354 10.056C31.7861 10.6253 32.0614 11.4513 32.0614 12.534V17H30.7874V12.646C30.7874 11.89 30.6008 11.3113 30.2274 10.91C29.8634 10.5087 29.3594 10.308 28.7154 10.308C28.0434 10.308 27.5021 10.532 27.0914 10.98C26.6901 11.4187 26.4894 12.0673 26.4894 12.926V17H25.2154V12.646C25.2154 11.89 25.0288 11.3113 24.6554 10.91C24.2821 10.5087 23.7781 10.308 23.1434 10.308C22.4621 10.308 21.9161 10.532 21.5054 10.98C21.1041 11.4187 20.9034 12.0673 20.9034 12.926V17H19.6294V9.314H20.9034V11.064C21.0901 10.4573 21.4214 9.99533 21.8974 9.678C22.3828 9.35133 22.9381 9.188 23.5634 9.188C24.2168 9.188 24.7814 9.356 25.2574 9.692C25.7428 10.0187 26.0881 10.504 26.2934 11.148C26.5081 10.5227 26.8674 10.042 27.3714 9.706C27.8754 9.36067 28.4448 9.188 29.0794 9.188ZM41.1096 12.73C41.1096 13.0007 41.0909 13.234 41.0536 13.43H34.9076C34.9356 14.3073 35.1829 14.9653 35.6496 15.404C36.1256 15.8427 36.7042 16.062 37.3856 16.062C38.0016 16.062 38.5149 15.908 38.9256 15.6C39.3456 15.2827 39.6022 14.8627 39.6956 14.34H41.0536C40.9602 14.872 40.7502 15.348 40.4236 15.768C40.1062 16.188 39.6909 16.5147 39.1776 16.748C38.6642 16.9813 38.0856 17.098 37.4416 17.098C36.7042 17.098 36.0509 16.9393 35.4816 16.622C34.9122 16.3047 34.4642 15.852 34.1376 15.264C33.8202 14.6667 33.6616 13.9667 33.6616 13.164C33.6616 12.3613 33.8202 11.6613 34.1376 11.064C34.4642 10.4667 34.9122 10.0093 35.4816 9.692C36.0509 9.37467 36.7042 9.216 37.4416 9.216C38.1882 9.216 38.8369 9.37467 39.3876 9.692C39.9476 10.0093 40.3722 10.434 40.6616 10.966C40.9602 11.498 41.1096 12.086 41.1096 12.73ZM39.8216 12.814C39.8496 12.2447 39.7562 11.7687 39.5416 11.386C39.3269 11.0033 39.0329 10.7187 38.6596 10.532C38.2862 10.3453 37.8802 10.252 37.4416 10.252C36.7416 10.252 36.1536 10.4713 35.6776 10.91C35.2016 11.3393 34.9449 11.974 34.9076 12.814H39.8216Z" fill="#1D1D1D"/>
<path d="M79.266 14.438C79.266 14.9047 79.154 15.3387 78.93 15.74C78.706 16.1413 78.3653 16.468 77.908 16.72C77.4507 16.972 76.886 17.098 76.214 17.098C75.5607 17.098 74.9773 16.9813 74.464 16.748C73.96 16.5053 73.554 16.1787 73.246 15.768C72.9473 15.348 72.7747 14.872 72.728 14.34H74.086C74.114 14.62 74.2073 14.8953 74.366 15.166C74.534 15.4273 74.7673 15.6467 75.066 15.824C75.374 15.992 75.7427 16.076 76.172 16.076C76.732 16.076 77.1613 15.9267 77.46 15.628C77.7587 15.3293 77.908 14.9467 77.908 14.48C77.908 14.0787 77.8007 13.752 77.586 13.5C77.3807 13.248 77.124 13.052 76.816 12.912C76.508 12.7627 76.088 12.604 75.556 12.436C74.9307 12.2307 74.4267 12.0393 74.044 11.862C73.6707 11.6753 73.3487 11.4 73.078 11.036C72.8167 10.672 72.686 10.1913 72.686 9.594C72.686 9.08067 72.8073 8.628 73.05 8.236C73.302 7.844 73.6567 7.54067 74.114 7.326C74.5807 7.11133 75.1267 7.004 75.752 7.004C76.7227 7.004 77.4927 7.242 78.062 7.718C78.6313 8.18467 78.9627 8.782 79.056 9.51H77.684C77.6093 9.118 77.4087 8.77267 77.082 8.474C76.7553 8.17533 76.312 8.026 75.752 8.026C75.2387 8.026 74.828 8.16133 74.52 8.432C74.212 8.69333 74.058 9.06667 74.058 9.552C74.058 9.93467 74.156 10.2473 74.352 10.49C74.5573 10.7233 74.8093 10.91 75.108 11.05C75.4067 11.1807 75.8173 11.33 76.34 11.498C76.9747 11.7033 77.4833 11.8993 77.866 12.086C78.258 12.2727 78.5893 12.5573 78.86 12.94C79.1307 13.3133 79.266 13.8127 79.266 14.438ZM85.025 9.188C85.921 9.188 86.6444 9.47733 87.195 10.056C87.7457 10.6253 88.021 11.4513 88.021 12.534V17H86.747V12.646C86.747 11.8807 86.551 11.2927 86.159 10.882C85.767 10.4713 85.235 10.266 84.563 10.266C83.863 10.266 83.303 10.4947 82.883 10.952C82.463 11.4 82.253 12.058 82.253 12.926V17H80.979V6.64H82.253V11.134C82.449 10.5087 82.7944 10.028 83.289 9.692C83.793 9.356 84.3717 9.188 85.025 9.188ZM93.4611 9.216C94.1985 9.216 94.8565 9.37467 95.4351 9.692C96.0231 10.0093 96.4805 10.4667 96.8071 11.064C97.1431 11.6613 97.3111 12.3613 97.3111 13.164C97.3111 13.9667 97.1431 14.6667 96.8071 15.264C96.4805 15.852 96.0231 16.3047 95.4351 16.622C94.8565 16.9393 94.1985 17.098 93.4611 17.098C92.7238 17.098 92.0611 16.9393 91.4731 16.622C90.8945 16.3047 90.4371 15.852 90.1011 15.264C89.7651 14.6667 89.5971 13.9667 89.5971 13.164C89.5971 12.3613 89.7651 11.6613 90.1011 11.064C90.4371 10.4667 90.8945 10.0093 91.4731 9.692C92.0611 9.37467 92.7238 9.216 93.4611 9.216ZM93.4611 10.336C93.0038 10.336 92.5791 10.4387 92.1871 10.644C91.8045 10.8493 91.4918 11.1667 91.2491 11.596C91.0158 12.016 90.8991 12.5387 90.8991 13.164C90.8991 13.78 91.0158 14.3027 91.2491 14.732C91.4918 15.152 91.8045 15.4647 92.1871 15.67C92.5791 15.8753 93.0038 15.978 93.4611 15.978C93.9185 15.978 94.3385 15.8753 94.7211 15.67C95.1131 15.4647 95.4258 15.152 95.6591 14.732C95.9018 14.3027 96.0231 13.78 96.0231 13.164C96.0231 12.5387 95.9018 12.016 95.6591 11.596C95.4258 11.1667 95.1131 10.8493 94.7211 10.644C94.3385 10.4387 93.9185 10.336 93.4611 10.336ZM105.803 9.314V17H104.529V15.194C104.333 15.8193 103.983 16.3 103.479 16.636C102.985 16.9627 102.406 17.126 101.743 17.126C100.857 17.126 100.138 16.8413 99.5872 16.272C99.0366 15.6933 98.7612 14.8673 98.7612 13.794V9.314H100.035V13.668C100.035 14.4333 100.231 15.026 100.623 15.446C101.015 15.8567 101.547 16.062 102.219 16.062C102.919 16.062 103.479 15.838 103.899 15.39C104.319 14.9327 104.529 14.27 104.529 13.402V9.314H105.803ZM109.118 6.64V17H107.844V6.64H109.118ZM114.317 9.216C115.063 9.216 115.693 9.40267 116.207 9.776C116.729 10.1493 117.093 10.6487 117.299 11.274V6.64H118.573V17H117.299V15.04C117.093 15.6653 116.729 16.1647 116.207 16.538C115.693 16.9113 115.063 17.098 114.317 17.098C113.635 17.098 113.029 16.9393 112.497 16.622C111.965 16.3047 111.545 15.852 111.237 15.264C110.938 14.6667 110.789 13.9667 110.789 13.164C110.789 12.3613 110.938 11.6613 111.237 11.064C111.545 10.4667 111.965 10.0093 112.497 9.692C113.029 9.37467 113.635 9.216 114.317 9.216ZM114.681 10.35C113.897 10.35 113.267 10.602 112.791 11.106C112.324 11.6007 112.091 12.2867 112.091 13.164C112.091 14.0413 112.324 14.732 112.791 15.236C113.267 15.7307 113.897 15.978 114.681 15.978C115.185 15.978 115.633 15.8613 116.025 15.628C116.426 15.3947 116.739 15.068 116.963 14.648C117.187 14.2187 117.299 13.724 117.299 13.164C117.299 12.604 117.187 12.1093 116.963 11.68C116.739 11.2507 116.426 10.924 116.025 10.7C115.633 10.4667 115.185 10.35 114.681 10.35ZM127.67 12.73C127.67 13.0007 127.651 13.234 127.614 13.43H121.468C121.496 14.3073 121.743 14.9653 122.21 15.404C122.686 15.8427 123.265 16.062 123.946 16.062C124.562 16.062 125.075 15.908 125.486 15.6C125.906 15.2827 126.163 14.8627 126.256 14.34H127.614C127.521 14.872 127.311 15.348 126.984 15.768C126.667 16.188 126.251 16.5147 125.738 16.748C125.225 16.9813 124.646 17.098 124.002 17.098C123.265 17.098 122.611 16.9393 122.042 16.622C121.473 16.3047 121.025 15.852 120.698 15.264C120.381 14.6667 120.222 13.9667 120.222 13.164C120.222 12.3613 120.381 11.6613 120.698 11.064C121.025 10.4667 121.473 10.0093 122.042 9.692C122.611 9.37467 123.265 9.216 124.002 9.216C124.749 9.216 125.397 9.37467 125.948 9.692C126.508 10.0093 126.933 10.434 127.222 10.966C127.521 11.498 127.67 12.086 127.67 12.73ZM126.382 12.814C126.41 12.2447 126.317 11.7687 126.102 11.386C125.887 11.0033 125.593 10.7187 125.22 10.532C124.847 10.3453 124.441 10.252 124.002 10.252C123.302 10.252 122.714 10.4713 122.238 10.91C121.762 11.3393 121.505 11.974 121.468 12.814H126.382ZM130.61 10.868C130.862 10.336 131.231 9.92533 131.716 9.636C132.202 9.33733 132.78 9.188 133.452 9.188V10.574H133.06C132.342 10.574 131.754 10.7607 131.296 11.134C130.839 11.498 130.61 12.1047 130.61 12.954V17H129.336V9.314H130.61V10.868ZM142.984 11.89C143.591 12.0207 144.081 12.31 144.454 12.758C144.837 13.206 145.028 13.7333 145.028 14.34C145.028 15.1427 144.753 15.7867 144.202 16.272C143.661 16.7573 142.872 17 141.836 17H138.168V7.13H141.78C142.77 7.13 143.521 7.34933 144.034 7.788C144.548 8.22667 144.804 8.82867 144.804 9.594C144.804 10.2287 144.632 10.742 144.286 11.134C143.95 11.526 143.516 11.778 142.984 11.89ZM139.442 11.456H141.57C142.196 11.456 142.672 11.3113 142.998 11.022C143.334 10.7327 143.502 10.3267 143.502 9.804C143.502 9.3 143.339 8.90333 143.012 8.614C142.686 8.32467 142.186 8.18 141.514 8.18H139.442V11.456ZM141.598 15.936C142.27 15.936 142.788 15.782 143.152 15.474C143.526 15.166 143.712 14.732 143.712 14.172C143.712 13.6213 143.521 13.192 143.138 12.884C142.765 12.5667 142.242 12.408 141.57 12.408H139.442V15.936H141.598ZM149.768 9.216C150.514 9.216 151.144 9.40267 151.658 9.776C152.18 10.1493 152.544 10.6487 152.75 11.274V9.314H154.024V17H152.75V15.04C152.544 15.6653 152.18 16.1647 151.658 16.538C151.144 16.9113 150.514 17.098 149.768 17.098C149.086 17.098 148.48 16.9393 147.948 16.622C147.416 16.3047 146.996 15.852 146.688 15.264C146.389 14.6667 146.24 13.9667 146.24 13.164C146.24 12.3613 146.389 11.6613 146.688 11.064C146.996 10.4667 147.416 10.0093 147.948 9.692C148.48 9.37467 149.086 9.216 149.768 9.216ZM150.132 10.35C149.348 10.35 148.718 10.602 148.242 11.106C147.775 11.6007 147.542 12.2867 147.542 13.164C147.542 14.0413 147.775 14.732 148.242 15.236C148.718 15.7307 149.348 15.978 150.132 15.978C150.636 15.978 151.084 15.8613 151.476 15.628C151.877 15.3947 152.19 15.068 152.414 14.648C152.638 14.2187 152.75 13.724 152.75 13.164C152.75 12.604 152.638 12.1093 152.414 11.68C152.19 11.2507 151.877 10.924 151.476 10.7C151.084 10.4667 150.636 10.35 150.132 10.35ZM159.201 9.216C159.948 9.216 160.578 9.40267 161.091 9.776C161.614 10.1493 161.978 10.6487 162.183 11.274V9.314H163.457V17.126C163.457 17.8353 163.308 18.4653 163.009 19.016C162.711 19.5667 162.291 19.996 161.749 20.304C161.208 20.612 160.578 20.766 159.859 20.766C158.823 20.766 157.979 20.514 157.325 20.01C156.672 19.5153 156.257 18.8433 156.079 17.994H157.339C157.489 18.5073 157.769 18.9087 158.179 19.198C158.599 19.4967 159.136 19.646 159.789 19.646C160.48 19.646 161.049 19.422 161.497 18.974C161.955 18.5353 162.183 17.9193 162.183 17.126V15.04C161.978 15.6653 161.614 16.1647 161.091 16.538C160.578 16.9113 159.948 17.098 159.201 17.098C158.52 17.098 157.913 16.9393 157.381 16.622C156.849 16.3047 156.429 15.852 156.121 15.264C155.823 14.6667 155.673 13.9667 155.673 13.164C155.673 12.3613 155.823 11.6613 156.121 11.064C156.429 10.4667 156.849 10.0093 157.381 9.692C157.913 9.37467 158.52 9.216 159.201 9.216ZM159.565 10.35C158.781 10.35 158.151 10.602 157.675 11.106C157.209 11.6007 156.975 12.2867 156.975 13.164C156.975 14.0413 157.209 14.732 157.675 15.236C158.151 15.7307 158.781 15.978 159.565 15.978C160.069 15.978 160.517 15.8613 160.909 15.628C161.311 15.3947 161.623 15.068 161.847 14.648C162.071 14.2187 162.183 13.724 162.183 13.164C162.183 12.604 162.071 12.1093 161.847 11.68C161.623 11.2507 161.311 10.924 160.909 10.7C160.517 10.4667 160.069 10.35 159.565 10.35ZM167.893 9.216C168.761 9.216 169.456 9.44467 169.979 9.902C170.511 10.35 170.833 10.9567 170.945 11.722H169.727C169.671 11.2647 169.48 10.8913 169.153 10.602C168.836 10.3033 168.406 10.154 167.865 10.154C167.408 10.154 167.048 10.266 166.787 10.49C166.535 10.7047 166.409 10.9987 166.409 11.372C166.409 11.652 166.493 11.8807 166.661 12.058C166.838 12.226 167.053 12.3567 167.305 12.45C167.566 12.534 167.921 12.6273 168.369 12.73C168.938 12.8607 169.396 12.996 169.741 13.136C170.096 13.2667 170.394 13.4813 170.637 13.78C170.889 14.0787 171.015 14.48 171.015 14.984C171.015 15.6093 170.777 16.118 170.301 16.51C169.834 16.902 169.209 17.098 168.425 17.098C167.51 17.098 166.764 16.8787 166.185 16.44C165.606 16.0013 165.266 15.39 165.163 14.606H166.395C166.442 15.0727 166.642 15.4507 166.997 15.74C167.361 16.0293 167.837 16.174 168.425 16.174C168.864 16.174 169.204 16.062 169.447 15.838C169.699 15.614 169.825 15.32 169.825 14.956C169.825 14.6573 169.736 14.4193 169.559 14.242C169.382 14.0647 169.162 13.9293 168.901 13.836C168.64 13.7427 168.28 13.6447 167.823 13.542C167.254 13.4113 166.796 13.2807 166.451 13.15C166.115 13.0193 165.826 12.814 165.583 12.534C165.35 12.2447 165.233 11.8573 165.233 11.372C165.233 10.728 165.471 10.21 165.947 9.818C166.423 9.41667 167.072 9.216 167.893 9.216Z" fill="#1D1D1D" fill-opacity="0.75"/>
<path d="M55.667 8L59.667 12L55.667 16" stroke="#2B2B2B" stroke-width="2" stroke-linecap="square"/>
</svg>
