<svg width="86" height="24" viewBox="0 0 86 24" fill="none" xmlns="http://www.w3.org/2000/svg">
<path d="M34.16 17L31.696 13.052H30.562V17H28.966V7.116H32.452C33.5813 7.116 34.4353 7.39133 35.014 7.942C35.602 8.49267 35.896 9.22067 35.896 10.126C35.896 10.9007 35.6767 11.5353 35.238 12.03C34.8087 12.5247 34.1833 12.842 33.362 12.982L35.952 17H34.16ZM30.562 11.918H32.326C33.614 11.918 34.258 11.3487 34.258 10.21C34.258 9.66867 34.0993 9.24867 33.782 8.95C33.474 8.642 32.9887 8.488 32.326 8.488H30.562V11.918ZM44.5012 12.772C44.5012 13.0333 44.4825 13.262 44.4452 13.458H38.5092C38.5372 14.2513 38.7565 14.8393 39.1672 15.222C39.5779 15.6047 40.0865 15.796 40.6932 15.796C41.2252 15.796 41.6732 15.6607 42.0372 15.39C42.4105 15.1193 42.6392 14.76 42.7232 14.312H44.4312C44.3285 14.8533 44.1139 15.334 43.7872 15.754C43.4605 16.174 43.0359 16.5053 42.5132 16.748C41.9905 16.9813 41.4072 17.098 40.7632 17.098C40.0165 17.098 39.3539 16.9393 38.7752 16.622C38.2059 16.3047 37.7579 15.8473 37.4312 15.25C37.1045 14.6527 36.9412 13.948 36.9412 13.136C36.9412 12.3333 37.1045 11.6333 37.4312 11.036C37.7579 10.4387 38.2059 9.98133 38.7752 9.664C39.3539 9.34667 40.0165 9.188 40.7632 9.188C41.5192 9.188 42.1772 9.34667 42.7372 9.664C43.3065 9.972 43.7405 10.4013 44.0392 10.952C44.3472 11.4933 44.5012 12.1 44.5012 12.772ZM42.8912 12.73C42.9099 12.226 42.8212 11.806 42.6252 11.47C42.4385 11.1247 42.1772 10.8727 41.8412 10.714C41.5145 10.546 41.1552 10.462 40.7632 10.462C40.1379 10.462 39.6152 10.6533 39.1952 11.036C38.7752 11.4187 38.5465 11.9833 38.5092 12.73H42.8912ZM55.6882 9.16C56.6028 9.16 57.3308 9.44933 57.8722 10.028C58.4228 10.6067 58.6982 11.4327 58.6982 12.506V17H57.1022V12.674C57.1022 12.002 56.9342 11.484 56.5982 11.12C56.2622 10.7467 55.8002 10.56 55.2122 10.56C54.5868 10.56 54.0875 10.7607 53.7142 11.162C53.3502 11.554 53.1682 12.1327 53.1682 12.898V17H51.5722V12.674C51.5722 12.002 51.4042 11.484 51.0682 11.12C50.7322 10.7467 50.2702 10.56 49.6822 10.56C49.0568 10.56 48.5575 10.7607 48.1842 11.162C47.8202 11.554 47.6382 12.1327 47.6382 12.898V17H46.0422V9.286H47.6382V10.896C47.8342 10.336 48.1608 9.90667 48.6182 9.608C49.0755 9.30933 49.6122 9.16 50.2282 9.16C50.8722 9.16 51.4275 9.31867 51.8942 9.636C52.3702 9.95333 52.7155 10.4107 52.9302 11.008C53.1542 10.4293 53.5135 9.97667 54.0082 9.65C54.5028 9.32333 55.0628 9.16 55.6882 9.16ZM64.0897 9.188C64.8364 9.188 65.5084 9.34667 66.1057 9.664C66.703 9.98133 67.1697 10.4387 67.5057 11.036C67.8417 11.6333 68.0097 12.3333 68.0097 13.136C68.0097 13.948 67.8417 14.6527 67.5057 15.25C67.1697 15.8473 66.703 16.3047 66.1057 16.622C65.5084 16.9393 64.8364 17.098 64.0897 17.098C63.343 17.098 62.671 16.9393 62.0737 16.622C61.4857 16.3047 61.019 15.8473 60.6737 15.25C60.3377 14.6433 60.1697 13.9387 60.1697 13.136C60.1697 12.3333 60.3377 11.6333 60.6737 11.036C61.019 10.4387 61.4857 9.98133 62.0737 9.664C62.671 9.34667 63.343 9.188 64.0897 9.188ZM64.0897 10.574C63.679 10.574 63.301 10.6673 62.9557 10.854C62.6104 11.0407 62.3304 11.33 62.1157 11.722C61.9104 12.1047 61.8077 12.576 61.8077 13.136C61.8077 13.7053 61.9104 14.1813 62.1157 14.564C62.3304 14.9467 62.6104 15.2313 62.9557 15.418C63.301 15.6047 63.679 15.698 64.0897 15.698C64.5004 15.698 64.8784 15.6047 65.2237 15.418C65.569 15.2313 65.8444 14.9467 66.0497 14.564C66.2644 14.1813 66.3717 13.7053 66.3717 13.136C66.3717 12.576 66.2644 12.1047 66.0497 11.722C65.8444 11.33 65.569 11.0407 65.2237 10.854C64.8784 10.6673 64.5004 10.574 64.0897 10.574ZM72.7081 15.348L74.8921 9.286H76.6001L73.6601 17H71.7281L68.7881 9.286H70.4961L72.7081 15.348ZM84.9426 12.772C84.9426 13.0333 84.9239 13.262 84.8866 13.458H78.9506C78.9786 14.2513 79.1979 14.8393 79.6086 15.222C80.0193 15.6047 80.5279 15.796 81.1346 15.796C81.6666 15.796 82.1146 15.6607 82.4786 15.39C82.8519 15.1193 83.0806 14.76 83.1646 14.312H84.8726C84.7699 14.8533 84.5553 15.334 84.2286 15.754C83.9019 16.174 83.4773 16.5053 82.9546 16.748C82.4319 16.9813 81.8486 17.098 81.2046 17.098C80.4579 17.098 79.7953 16.9393 79.2166 16.622C78.6473 16.3047 78.1993 15.8473 77.8726 15.25C77.5459 14.6527 77.3826 13.948 77.3826 13.136C77.3826 12.3333 77.5459 11.6333 77.8726 11.036C78.1993 10.4387 78.6473 9.98133 79.2166 9.664C79.7953 9.34667 80.4579 9.188 81.2046 9.188C81.9606 9.188 82.6186 9.34667 83.1786 9.664C83.7479 9.972 84.1819 10.4013 84.4806 10.952C84.7886 11.4933 84.9426 12.1 84.9426 12.772ZM83.3326 12.73C83.3513 12.226 83.2626 11.806 83.0666 11.47C82.8799 11.1247 82.6186 10.8727 82.2826 10.714C81.9559 10.546 81.5966 10.462 81.2046 10.462C80.5793 10.462 80.0566 10.6533 79.6366 11.036C79.2166 11.4187 78.9879 11.9833 78.9506 12.73H83.3326Z" fill="#212121" fill-opacity="0.75"/>
<path d="M16.5625 4.5H13.125V3.875C13.125 2.84113 12.2839 2 11.25 2H8.75C7.71613 2 6.875 2.84113 6.875 3.875V4.5H3.4375C2.57594 4.5 1.875 5.20094 1.875 6.0625V8.25C1.875 8.59516 2.15484 8.875 2.5 8.875H2.84156L3.38152 20.2142C3.42922 21.2156 4.25187 22 5.25437 22H14.7456C15.7482 22 16.5708 21.2156 16.6185 20.2142L17.1584 8.875H17.5C17.8452 8.875 18.125 8.59516 18.125 8.25V6.0625C18.125 5.20094 17.4241 4.5 16.5625 4.5ZM8.125 3.875C8.125 3.53039 8.40539 3.25 8.75 3.25H11.25C11.5946 3.25 11.875 3.53039 11.875 3.875V4.5H8.125V3.875ZM3.125 6.0625C3.125 5.8902 3.2652 5.75 3.4375 5.75H16.5625C16.7348 5.75 16.875 5.8902 16.875 6.0625V7.625C16.6824 7.625 3.92316 7.625 3.125 7.625V6.0625ZM15.3699 20.1547C15.354 20.4885 15.0798 20.75 14.7456 20.75H5.25437C4.9202 20.75 4.64598 20.4885 4.63012 20.1547L4.09297 8.875H15.907L15.3699 20.1547Z" fill="#212121" fill-opacity="0.75"/>
</svg>
