<svg width="98" height="24" viewBox="0 0 98 24" fill="none" xmlns="http://www.w3.org/2000/svg">
<path d="M7.574 12.688H4.774V15.516H3.22V12.688H0.434V11.218H3.22V8.376H4.774V11.218H7.574V12.688ZM14.732 8.264L11.05 17H9.37005L13.108 8.446H8.20805V7.06H14.732V8.264ZM15.5838 14.872V13.528L20.4978 7.032H22.2058V13.472H23.5918V14.872H22.2058V17H20.5958V14.872H15.5838ZM20.7078 8.936L17.2358 13.472H20.7078V8.936ZM24.9605 9.412C24.9605 8.92667 25.0911 8.48333 25.3525 8.082C25.6138 7.68067 26.0011 7.35867 26.5145 7.116C27.0371 6.87333 27.6625 6.752 28.3905 6.752C29.1185 6.752 29.7391 6.87333 30.2525 7.116C30.7751 7.35867 31.1671 7.68067 31.4285 8.082C31.6991 8.48333 31.8345 8.92667 31.8345 9.412C31.8345 9.95333 31.6898 10.42 31.4005 10.812C31.1205 11.204 30.7005 11.4887 30.1405 11.666C30.7658 11.862 31.2465 12.1793 31.5825 12.618C31.9185 13.0473 32.0865 13.5747 32.0865 14.2C32.0865 15.1613 31.7458 15.9127 31.0645 16.454C30.3831 16.986 29.4918 17.252 28.3905 17.252C27.2891 17.252 26.3978 16.986 25.7165 16.454C25.0445 15.9127 24.7085 15.1613 24.7085 14.2C24.7085 13.5747 24.8765 13.0473 25.2125 12.618C25.5485 12.1793 26.0291 11.862 26.6545 11.666C26.0945 11.4887 25.6698 11.204 25.3805 10.812C25.1005 10.42 24.9605 9.95333 24.9605 9.412ZM26.5425 9.664C26.5425 10.168 26.7058 10.56 27.0325 10.84C27.3685 11.1107 27.8211 11.246 28.3905 11.246C28.9598 11.246 29.4125 11.1107 29.7485 10.84C30.0845 10.56 30.2525 10.168 30.2525 9.664C30.2525 9.16 30.0798 8.768 29.7345 8.488C29.3985 8.208 28.9505 8.068 28.3905 8.068C27.8305 8.068 27.3825 8.208 27.0465 8.488C26.7105 8.768 26.5425 9.16 26.5425 9.664ZM26.2625 14.116C26.2625 14.6853 26.4538 15.1333 26.8365 15.46C27.2191 15.7773 27.7371 15.936 28.3905 15.936C29.0438 15.936 29.5618 15.7773 29.9445 15.46C30.3271 15.1333 30.5185 14.6853 30.5185 14.116C30.5185 13.5373 30.3178 13.1033 29.9165 12.814C29.5245 12.5153 29.0158 12.366 28.3905 12.366C27.7745 12.366 27.2658 12.5153 26.8645 12.814C26.4631 13.1127 26.2625 13.5467 26.2625 14.116ZM40.2938 6.808C40.9471 6.808 41.5071 6.92467 41.9738 7.158C42.4404 7.382 42.7904 7.69467 43.0238 8.096C43.2664 8.49733 43.3878 8.94533 43.3878 9.44C43.3878 10.0653 43.2104 10.588 42.8558 11.008C42.5104 11.4187 42.0204 11.666 41.3858 11.75V11.82C42.0671 12.016 42.5991 12.31 42.9818 12.702C43.3738 13.0847 43.5698 13.6167 43.5698 14.298C43.5698 15.1287 43.2944 15.8053 42.7438 16.328C42.1931 16.8413 41.4044 17.098 40.3778 17.098C39.3231 17.098 38.4738 16.832 37.8298 16.3C37.1858 15.7587 36.8171 14.9607 36.7238 13.906H38.3058C38.3618 14.466 38.5624 14.914 38.9078 15.25C39.2531 15.5767 39.7198 15.74 40.3078 15.74C40.8584 15.74 41.2784 15.5953 41.5678 15.306C41.8664 15.0167 42.0158 14.6433 42.0158 14.186C42.0158 13.6353 41.8011 13.2153 41.3718 12.926C40.9518 12.6367 40.3404 12.492 39.5378 12.492H39.1598V11.176H39.5378C41.0591 11.1947 41.8198 10.6767 41.8198 9.622C41.8198 9.16467 41.6798 8.80533 41.3998 8.544C41.1198 8.28267 40.7371 8.152 40.2518 8.152C39.7664 8.152 39.3604 8.30133 39.0338 8.6C38.7071 8.88933 38.5111 9.314 38.4458 9.874H36.8778C36.9431 8.90333 37.2698 8.152 37.8578 7.62C38.4458 7.07867 39.2578 6.808 40.2938 6.808ZM45.3863 9.412C45.3863 8.92667 45.5169 8.48333 45.7783 8.082C46.0396 7.68067 46.4269 7.35867 46.9403 7.116C47.4629 6.87333 48.0883 6.752 48.8163 6.752C49.5443 6.752 50.1649 6.87333 50.6783 7.116C51.2009 7.35867 51.5929 7.68067 51.8543 8.082C52.1249 8.48333 52.2603 8.92667 52.2603 9.412C52.2603 9.95333 52.1156 10.42 51.8263 10.812C51.5463 11.204 51.1263 11.4887 50.5663 11.666C51.1916 11.862 51.6723 12.1793 52.0083 12.618C52.3443 13.0473 52.5123 13.5747 52.5123 14.2C52.5123 15.1613 52.1716 15.9127 51.4903 16.454C50.8089 16.986 49.9176 17.252 48.8163 17.252C47.7149 17.252 46.8236 16.986 46.1423 16.454C45.4703 15.9127 45.1343 15.1613 45.1343 14.2C45.1343 13.5747 45.3023 13.0473 45.6383 12.618C45.9743 12.1793 46.4549 11.862 47.0803 11.666C46.5203 11.4887 46.0956 11.204 45.8063 10.812C45.5263 10.42 45.3863 9.95333 45.3863 9.412ZM46.9683 9.664C46.9683 10.168 47.1316 10.56 47.4583 10.84C47.7943 11.1107 48.2469 11.246 48.8163 11.246C49.3856 11.246 49.8383 11.1107 50.1743 10.84C50.5103 10.56 50.6783 10.168 50.6783 9.664C50.6783 9.16 50.5056 8.768 50.1603 8.488C49.8243 8.208 49.3763 8.068 48.8163 8.068C48.2563 8.068 47.8083 8.208 47.4723 8.488C47.1363 8.768 46.9683 9.16 46.9683 9.664ZM46.6883 14.116C46.6883 14.6853 46.8796 15.1333 47.2623 15.46C47.6449 15.7773 48.1629 15.936 48.8163 15.936C49.4696 15.936 49.9876 15.7773 50.3703 15.46C50.7529 15.1333 50.9443 14.6853 50.9443 14.116C50.9443 13.5373 50.7436 13.1033 50.3423 12.814C49.9503 12.5153 49.4416 12.366 48.8163 12.366C48.2003 12.366 47.6916 12.5153 47.2903 12.814C46.8889 13.1127 46.6883 13.5467 46.6883 14.116ZM57.4383 6.808C58.0916 6.808 58.6516 6.92467 59.1183 7.158C59.5849 7.382 59.9349 7.69467 60.1683 8.096C60.4109 8.49733 60.5323 8.94533 60.5323 9.44C60.5323 10.0653 60.3549 10.588 60.0003 11.008C59.6549 11.4187 59.1649 11.666 58.5303 11.75V11.82C59.2116 12.016 59.7436 12.31 60.1263 12.702C60.5183 13.0847 60.7143 13.6167 60.7143 14.298C60.7143 15.1287 60.4389 15.8053 59.8883 16.328C59.3376 16.8413 58.5489 17.098 57.5223 17.098C56.4676 17.098 55.6183 16.832 54.9743 16.3C54.3303 15.7587 53.9616 14.9607 53.8683 13.906H55.4503C55.5063 14.466 55.7069 14.914 56.0523 15.25C56.3976 15.5767 56.8643 15.74 57.4523 15.74C58.0029 15.74 58.4229 15.5953 58.7123 15.306C59.0109 15.0167 59.1603 14.6433 59.1603 14.186C59.1603 13.6353 58.9456 13.2153 58.5163 12.926C58.0963 12.6367 57.4849 12.492 56.6823 12.492H56.3043V11.176H56.6823C58.2036 11.1947 58.9643 10.6767 58.9643 9.622C58.9643 9.16467 58.8243 8.80533 58.5443 8.544C58.2643 8.28267 57.8816 8.152 57.3963 8.152C56.9109 8.152 56.5049 8.30133 56.1783 8.6C55.8516 8.88933 55.6556 9.314 55.5903 9.874H54.0223C54.0876 8.90333 54.4143 8.152 55.0023 7.62C55.5903 7.07867 56.4023 6.808 57.4383 6.808ZM65.392 15.754C66.904 14.718 68.1127 13.7053 69.018 12.716C69.9327 11.7173 70.39 10.7933 70.39 9.944C70.39 9.44 70.264 9.03867 70.012 8.74C69.7694 8.44133 69.3727 8.292 68.822 8.292C68.2527 8.292 67.8234 8.47867 67.534 8.852C67.2447 9.216 67.0814 9.73867 67.044 10.42H65.49C65.5554 9.29067 65.9007 8.42733 66.526 7.83C67.1607 7.23267 67.968 6.934 68.948 6.934C69.9094 6.934 70.6607 7.19067 71.202 7.704C71.7527 8.208 72.028 8.908 72.028 9.804C72.028 10.5227 71.804 11.2507 71.356 11.988C70.9174 12.7253 70.3574 13.4067 69.676 14.032C68.9947 14.648 68.29 15.18 67.562 15.628H72.252V16.93H65.392V15.754ZM76.9754 6.808C77.6287 6.808 78.1887 6.92467 78.6554 7.158C79.1221 7.382 79.4721 7.69467 79.7054 8.096C79.9481 8.49733 80.0694 8.94533 80.0694 9.44C80.0694 10.0653 79.8921 10.588 79.5374 11.008C79.1921 11.4187 78.7021 11.666 78.0674 11.75V11.82C78.7487 12.016 79.2807 12.31 79.6634 12.702C80.0554 13.0847 80.2514 13.6167 80.2514 14.298C80.2514 15.1287 79.9761 15.8053 79.4254 16.328C78.8747 16.8413 78.0861 17.098 77.0594 17.098C76.0047 17.098 75.1554 16.832 74.5114 16.3C73.8674 15.7587 73.4987 14.9607 73.4054 13.906H74.9874C75.0434 14.466 75.2441 14.914 75.5894 15.25C75.9347 15.5767 76.4014 15.74 76.9894 15.74C77.5401 15.74 77.9601 15.5953 78.2494 15.306C78.5481 15.0167 78.6974 14.6433 78.6974 14.186C78.6974 13.6353 78.4827 13.2153 78.0534 12.926C77.6334 12.6367 77.0221 12.492 76.2194 12.492H75.8414V11.176H76.2194C77.7407 11.1947 78.5014 10.6767 78.5014 9.622C78.5014 9.16467 78.3614 8.80533 78.0814 8.544C77.8014 8.28267 77.4187 8.152 76.9334 8.152C76.4481 8.152 76.0421 8.30133 75.7154 8.6C75.3887 8.88933 75.1927 9.314 75.1274 9.874H73.5594C73.6247 8.90333 73.9514 8.152 74.5394 7.62C75.1274 7.07867 75.9394 6.808 76.9754 6.808ZM84.5511 8.614V7.116H87.7151V17H86.0351V8.614H84.5511ZM89.1521 14.872V13.528L94.0661 7.032H95.7741V13.472H97.1601V14.872H95.7741V17H94.1641V14.872H89.1521ZM94.2761 8.936L90.8041 13.472H94.2761V8.936Z" fill="white" fill-opacity="0.9"/>
</svg>
