<svg width="86" height="24" viewBox="0 0 86 24" fill="none" xmlns="http://www.w3.org/2000/svg">
<path d="M34.804 7.116V8.404H30.562V11.47H34.062V12.702H30.562V17H28.966V7.116H34.804ZM39.3198 9.188C40.0198 9.188 40.6171 9.36067 41.1118 9.706C41.6064 10.0513 41.9564 10.5087 42.1618 11.078V9.286H43.7578V17H42.1618V15.208C41.9564 15.7773 41.6064 16.2347 41.1118 16.58C40.6171 16.9253 40.0198 17.098 39.3198 17.098C38.6478 17.098 38.0458 16.9393 37.5138 16.622C36.9911 16.3047 36.5804 15.8473 36.2818 15.25C35.9831 14.6527 35.8338 13.948 35.8338 13.136C35.8338 12.3333 35.9831 11.6333 36.2818 11.036C36.5804 10.4387 36.9911 9.98133 37.5138 9.664C38.0458 9.34667 38.6478 9.188 39.3198 9.188ZM39.8098 10.588C39.1004 10.588 38.5311 10.8167 38.1018 11.274C37.6818 11.722 37.4718 12.3427 37.4718 13.136C37.4718 13.9293 37.6818 14.5547 38.1018 15.012C38.5311 15.46 39.1004 15.684 39.8098 15.684C40.2578 15.684 40.6591 15.5813 41.0138 15.376C41.3684 15.1613 41.6484 14.8627 41.8538 14.48C42.0591 14.0973 42.1618 13.6493 42.1618 13.136C42.1618 12.632 42.0591 12.1887 41.8538 11.806C41.6484 11.414 41.3684 11.1153 41.0138 10.91C40.6591 10.6953 40.2578 10.588 39.8098 10.588ZM48.837 15.348L51.021 9.286H52.729L49.789 17H47.857L44.917 9.286H46.625L48.837 15.348ZM57.4315 9.188C58.1782 9.188 58.8502 9.34667 59.4475 9.664C60.0448 9.98133 60.5115 10.4387 60.8475 11.036C61.1835 11.6333 61.3515 12.3333 61.3515 13.136C61.3515 13.948 61.1835 14.6527 60.8475 15.25C60.5115 15.8473 60.0448 16.3047 59.4475 16.622C58.8502 16.9393 58.1782 17.098 57.4315 17.098C56.6848 17.098 56.0128 16.9393 55.4155 16.622C54.8275 16.3047 54.3608 15.8473 54.0155 15.25C53.6795 14.6433 53.5115 13.9387 53.5115 13.136C53.5115 12.3333 53.6795 11.6333 54.0155 11.036C54.3608 10.4387 54.8275 9.98133 55.4155 9.664C56.0128 9.34667 56.6848 9.188 57.4315 9.188ZM57.4315 10.574C57.0208 10.574 56.6428 10.6673 56.2975 10.854C55.9522 11.0407 55.6722 11.33 55.4575 11.722C55.2522 12.1047 55.1495 12.576 55.1495 13.136C55.1495 13.7053 55.2522 14.1813 55.4575 14.564C55.6722 14.9467 55.9522 15.2313 56.2975 15.418C56.6428 15.6047 57.0208 15.698 57.4315 15.698C57.8422 15.698 58.2202 15.6047 58.5655 15.418C58.9108 15.2313 59.1862 14.9467 59.3915 14.564C59.6062 14.1813 59.7135 13.7053 59.7135 13.136C59.7135 12.576 59.6062 12.1047 59.3915 11.722C59.1862 11.33 58.9108 11.0407 58.5655 10.854C58.2202 10.6673 57.8422 10.574 57.4315 10.574ZM64.4819 10.798C64.7433 10.294 65.1166 9.89733 65.6019 9.608C66.0873 9.30933 66.6473 9.16 67.2819 9.16V10.896H66.8059C66.1059 10.896 65.5413 11.0687 65.1119 11.414C64.6919 11.75 64.4819 12.31 64.4819 13.094V17H62.8859V9.286H64.4819V10.798ZM68.2537 7.046C68.2537 6.77533 68.3471 6.55133 68.5337 6.374C68.7204 6.19667 68.9677 6.108 69.2757 6.108C69.5837 6.108 69.8311 6.19667 70.0177 6.374C70.2137 6.55133 70.3117 6.77533 70.3117 7.046C70.3117 7.31667 70.2137 7.536 70.0177 7.704C69.8311 7.872 69.5837 7.956 69.2757 7.956C68.9677 7.956 68.7204 7.872 68.5337 7.704C68.3471 7.536 68.2537 7.31667 68.2537 7.046ZM70.0737 9.286V17H68.4777V9.286H70.0737ZM75.8831 15.614V17H74.9031C74.0817 17 73.4564 16.804 73.0271 16.412C72.6071 16.0107 72.3971 15.348 72.3971 14.424V10.644H71.2911V9.286H72.3971V7.368H74.0071V9.286H75.8691V10.644H74.0071V14.452C74.0071 14.8907 74.0864 15.194 74.2451 15.362C74.4131 15.53 74.7024 15.614 75.1131 15.614H75.8831ZM84.5461 12.772C84.5461 13.0333 84.5274 13.262 84.4901 13.458H78.5541C78.5821 14.2513 78.8014 14.8393 79.2121 15.222C79.6228 15.6047 80.1314 15.796 80.7381 15.796C81.2701 15.796 81.7181 15.6607 82.0821 15.39C82.4554 15.1193 82.6841 14.76 82.7681 14.312H84.4761C84.3734 14.8533 84.1588 15.334 83.8321 15.754C83.5054 16.174 83.0808 16.5053 82.5581 16.748C82.0354 16.9813 81.4521 17.098 80.8081 17.098C80.0614 17.098 79.3988 16.9393 78.8201 16.622C78.2508 16.3047 77.8028 15.8473 77.4761 15.25C77.1494 14.6527 76.9861 13.948 76.9861 13.136C76.9861 12.3333 77.1494 11.6333 77.4761 11.036C77.8028 10.4387 78.2508 9.98133 78.8201 9.664C79.3988 9.34667 80.0614 9.188 80.8081 9.188C81.5641 9.188 82.2221 9.34667 82.7821 9.664C83.3514 9.972 83.7854 10.4013 84.0841 10.952C84.3921 11.4933 84.5461 12.1 84.5461 12.772ZM82.9361 12.73C82.9548 12.226 82.8661 11.806 82.6701 11.47C82.4834 11.1247 82.2221 10.8727 81.8861 10.714C81.5594 10.546 81.2001 10.462 80.8081 10.462C80.1828 10.462 79.6601 10.6533 79.2401 11.036C78.8201 11.4187 78.5914 11.9833 78.5541 12.73H82.9361Z" fill="#212121" fill-opacity="0.75"/>
<path d="M9.99996 19.5L8.79163 18.421C4.49996 14.6035 1.66663 12.0858 1.66663 8.99591C1.66663 6.4782 3.68329 4.5 6.24996 4.5C7.69996 4.5 9.09163 5.16213 9.99996 6.20845C10.9083 5.16213 12.3 4.5 13.75 4.5C16.3166 4.5 18.3333 6.4782 18.3333 8.99591C18.3333 12.0858 15.5 14.6035 11.2083 18.4292L9.99996 19.5Z" stroke="#212121" stroke-opacity="0.75" stroke-width="2" stroke-linecap="square"/>
</svg>
